<svg xmlns="http://www.w3.org/2000/svg" viewBox="27.5781 0 16.0968 16.442" width="32" height="32">
  <style>
    path {
      fill: #000000;
    }
    @media (prefers-color-scheme: dark) {
      path {
        fill: #ffffff;
      }
    }
  </style>
  <path d="M43.6749 10.5882H39.4238C38.7951 11.641 37.3328 13.4818 34.4059 14.4428C34.4059 14.4428 35.2597 13.3835 35.2492 12.602C33.0777 12.3502 31.3872 10.5005 31.3872 8.22587C31.3872 5.78069 33.3336 3.80018 35.7374 3.80018C36.0412 3.80018 36.3345 3.82861 36.6196 3.88954V0.0430546C36.3499 0.0170594 36.0769 0 35.7983 0C31.2581 0 27.5781 3.67914 27.5781 8.21775C27.5781 12.758 31.2581 16.442 35.7983 16.442C39.5181 16.442 42.657 13.9749 43.6749 10.5882Z" />
</svg>
